<svg width="65" height="65" viewBox="0 0 65 65" fill="none" xmlns="http://www.w3.org/2000/svg">
<path d="M48.6156 48.6613C57.4954 39.7815 57.4954 25.3845 48.6156 16.5047C39.7358 7.62487 25.3388 7.62487 16.4589 16.5047C7.57913 25.3845 7.57913 39.7815 16.4589 48.6613C25.3388 57.5411 39.7358 57.5411 48.6156 48.6613Z" fill="#FEE475"/>
<path d="M48.2046 48.2502C56.8573 39.5974 56.8573 25.5686 48.2046 16.9159C39.5518 8.26313 25.523 8.26313 16.8703 16.9159C8.21755 25.5686 8.21755 39.5974 16.8703 48.2502C25.523 56.9029 39.5518 56.9029 48.2046 48.2502Z" fill="#FED425"/>
<path d="M48.248 16.9619L16.9153 48.2934C19.0152 50.3815 21.532 52.0463 24.3284 53.1622L53.1169 24.375C51.9997 21.5786 50.3349 19.0618 48.248 16.9619Z" fill="#FEB724"/>
<path d="M54.1362 37.5166L37.4702 54.1826C45.7444 52.2996 52.2532 45.7908 54.1362 37.5166Z" fill="#FEB724"/>
<path d="M21.6561 13.2843L13.2382 21.7023C12.3104 23.3435 11.5825 25.1128 11.0964 26.9801L26.934 11.1426C25.0667 11.6287 23.2974 12.3565 21.6561 13.2843Z" fill="#FEB724"/>
<path d="M45.3289 14.4971L14.4509 45.3751C14.8103 45.8834 15.1892 46.376 15.5904 46.8517L46.8042 15.6365C46.3299 15.2354 45.836 14.8577 45.3289 14.4971Z" fill="#FEB724"/>
<path d="M32.9724 49.0484C41.8391 49.0484 49.0269 41.8606 49.0269 32.9939C49.0269 24.1273 41.8391 16.9395 32.9724 16.9395C24.1058 16.9395 16.918 24.1273 16.918 32.9939C16.918 41.8606 24.1058 49.0484 32.9724 49.0484Z" fill="#FB9D12"/>
<path d="M43.8894 43.9351C50.159 37.6655 50.159 27.5005 43.8894 21.2309C37.6198 14.9613 27.4547 14.9613 21.1851 21.2309C14.9155 27.5005 14.9155 37.6655 21.1851 43.9351C27.4547 50.2047 37.6198 50.2047 43.8894 43.9351Z" fill="#FEB724"/>
<path d="M17.3545 33.4554C17.3545 24.5892 24.5428 17.4009 33.409 17.4009C37.6206 17.4009 41.4519 19.0252 44.3149 21.6778C41.3826 18.5129 37.192 16.5293 32.5374 16.5293C23.6712 16.5293 16.4829 23.7176 16.4829 32.5838C16.4829 37.2383 18.4665 41.429 21.6314 44.3613C18.9775 41.4983 17.3545 37.667 17.3545 33.4554Z" fill="#FB9D12"/>
<path d="M32.5375 10.7173C44.9488 10.7173 55.0315 20.6641 55.2641 33.0192C55.2667 32.8742 55.2746 32.7292 55.2746 32.5828C55.2746 20.0264 45.0951 9.8457 32.5375 9.8457C19.9798 9.8457 9.79907 20.0264 9.79907 32.5841C9.79907 32.7305 9.80691 32.8742 9.80953 33.0206C10.0434 20.6641 20.1248 10.7173 32.5375 10.7173Z" fill="#FB9D12"/>
</svg>
