<svg width="184" height="118" viewBox="0 0 184 118" fill="none" xmlns="http://www.w3.org/2000/svg">
<path d="M32.2772 42.3848L28.6849 50.3339L20.0147 51.2939L26.4648 57.1668L24.6986 65.7093L32.2772 61.3898L39.8558 65.7093L38.0896 57.1668L44.5396 51.2939L35.8694 50.3339L32.2772 42.3848Z" fill="#DA4BFF"/>
<path d="M118.861 87.9779C135.005 71.8342 135.005 45.66 118.861 29.5162C102.717 13.3725 76.5431 13.3725 60.3993 29.5162C44.2556 45.66 44.2556 71.8342 60.3993 87.9779C76.5431 104.122 102.717 104.122 118.861 87.9779Z" fill="#FEE475"/>
<path d="M118.113 87.2304C133.844 71.4995 133.844 45.9947 118.113 30.2637C102.382 14.5328 76.8776 14.5328 61.1467 30.2637C45.4157 45.9947 45.4157 71.4995 61.1467 87.2304C76.8776 102.961 102.382 102.961 118.113 87.2304Z" fill="#FED425"/>
<path d="M118.193 30.3467L61.229 87.3082C65.0467 91.1045 69.6223 94.1311 74.7062 96.1599L127.045 43.8239C125.013 38.7399 121.987 34.1644 118.193 30.3467Z" fill="#FEB724"/>
<path d="M128.898 67.7168L98.5984 98.0161C113.641 94.5928 125.474 82.7595 128.898 67.7168Z" fill="#FEB724"/>
<path d="M69.8482 23.6613L54.5441 38.9654C52.8574 41.9492 51.5341 45.1659 50.6504 48.5607L79.4435 19.7676C76.0487 20.6513 72.832 21.9746 69.8482 23.6613Z" fill="#FEB724"/>
<path d="M112.886 25.8662L56.7488 82.0033C57.4021 82.9275 58.091 83.8231 58.8204 84.6878L115.568 27.9378C114.706 27.2085 113.808 26.5219 112.886 25.8662Z" fill="#FEB724"/>
<path d="M90.4214 88.6816C106.541 88.6816 119.609 75.6139 119.609 59.4941C119.609 43.3743 106.541 30.3066 90.4214 30.3066C74.3016 30.3066 61.2339 43.3743 61.2339 59.4941C61.2339 75.6139 74.3016 88.6816 90.4214 88.6816Z" fill="#FB9D12"/>
<path d="M110.269 79.3856C121.667 67.9872 121.667 49.5069 110.269 38.1086C98.8704 26.7103 80.3901 26.7103 68.9918 38.1086C57.5934 49.5069 57.5934 67.9872 68.9918 79.3855C80.3901 90.7839 98.8704 90.7839 110.269 79.3856Z" fill="#FEB724"/>
<path d="M62.0272 60.3326C62.0272 44.2137 75.0958 31.1451 91.2147 31.1451C98.8715 31.1451 105.837 34.0981 111.042 38.9207C105.711 33.1668 98.0923 29.5605 89.6301 29.5605C73.5112 29.5605 60.4426 42.6291 60.4426 58.748C60.4426 67.2102 64.0489 74.829 69.8028 80.16C64.9778 74.9549 62.0272 67.9894 62.0272 60.3326Z" fill="#FB9D12"/>
<path d="M89.6303 18.9928C112.194 18.9928 130.525 37.0764 130.948 59.5384C130.953 59.2747 130.967 59.011 130.967 58.7449C130.967 35.9171 112.461 17.4082 89.6303 17.4082C66.8001 17.4082 48.2913 35.9171 48.2913 58.7473C48.2913 59.0133 48.3055 59.2747 48.3103 59.5407C48.7355 37.0764 67.0638 18.9928 89.6303 18.9928Z" fill="#FB9D12"/>
<path d="M76.6157 52.396L90.4883 66.9131L132.267 28.0381" stroke="white" stroke-width="10.5492" stroke-linecap="round" stroke-linejoin="round"/>
<path d="M151.723 42.3848L155.315 50.3339L163.985 51.2939L157.535 57.1668L159.301 65.7093L151.723 61.3898L144.144 65.7093L145.91 57.1668L139.46 51.2939L148.131 50.3339L151.723 42.3848Z" fill="#DA4BFF"/>
<path d="M151.723 3.2959L154.335 9.07711L160.641 9.7753L155.95 14.0465L157.234 20.2592L151.723 17.1177L146.211 20.2592L147.496 14.0465L142.805 9.7753L149.11 9.07711L151.723 3.2959Z" fill="#84C743"/>
<path d="M32.2772 3.2959L29.6647 9.07711L23.3591 9.7753L28.05 14.0465L26.7655 20.2592L32.2772 17.1177L37.7889 20.2592L36.5044 14.0465L41.1953 9.7753L34.8898 9.07711L32.2772 3.2959Z" fill="#84C743"/>
<path d="M176.967 26.708L178.927 31.0439L183.656 31.5676L180.138 34.7709L181.101 39.4305L176.967 37.0744L172.834 39.4305L173.797 34.7709L170.279 31.5676L175.008 31.0439L176.967 26.708Z" fill="#FFD200"/>
<path d="M7.03286 26.708L5.07345 31.0439L0.344265 31.5676L3.86247 34.7709L2.89908 39.4305L7.03286 37.0744L11.1666 39.4305L10.2033 34.7709L13.7215 31.5676L8.99228 31.0439L7.03286 26.708Z" fill="#FFD200"/>
</svg>
